<?xml version="1.0" standalone="no"?>
<!DOCTYPE svg PUBLIC "-//W3C//DTD SVG 20010904//EN"
 "http://www.w3.org/TR/2001/REC-SVG-20010904/DTD/svg10.dtd">
<svg version="1.0" xmlns="http://www.w3.org/2000/svg"
 width="250.000000pt" height="279.000000pt" viewBox="0 0 250.000000 279.000000"
 preserveAspectRatio="xMidYMid meet">

<g transform="translate(0.000000,279.000000) scale(0.100000,-0.100000)"
fill="#000000" stroke="none">
<path d="M995 2366 c-17 -7 -36 -20 -44 -29 -15 -19 -36 -23 -25 -5 14 22 -53
-31 -86 -69 -57 -64 -120 -235 -120 -324 0 -61 -8 -76 -39 -71 -25 3 -30 -1
-49 -46 -15 -34 -23 -75 -24 -126 l-2 -76 -33 -6 c-18 -3 -36 -11 -39 -16 -3
-5 -15 -1 -27 9 -11 10 -17 12 -12 4 6 -10 2 -12 -15 -6 -15 5 -20 4 -16 -4
12 -18 -16 -12 -30 7 -10 14 -16 15 -32 5 -11 -6 -50 -10 -95 -8 -83 3 -101
-3 -91 -29 5 -12 13 -16 30 -12 12 3 25 2 28 -2 3 -5 26 -6 51 -2 33 5 45 4
45 -6 0 -7 6 -15 13 -18 6 -3 -3 -4 -21 -3 -18 2 -35 0 -38 -5 -3 -5 -9 -6
-14 -3 -5 3 -20 1 -35 -5 -30 -12 -55 -3 -34 12 11 8 11 9 -1 5 -8 -2 -15 -12
-15 -23 0 -14 -8 -20 -30 -21 -29 -3 -29 -2 -7 9 17 8 21 17 16 32 -4 12 -11
24 -16 27 -5 3 -10 10 -11 15 -3 13 -35 15 -42 4 -4 -6 -11 -7 -17 -4 -6 4
-13 1 -17 -5 -6 -9 -14 -8 -34 2 -15 8 -24 16 -22 19 3 3 -5 5 -17 4 l-23 -1
-3 -202 -2 -203 24 0 c13 0 31 -3 40 -6 11 -4 16 -1 16 11 0 14 4 13 20 -6 24
-30 26 -18 3 19 -17 27 -17 27 3 10 25 -22 38 -23 30 -3 -7 20 0 19 22 -2 9
-10 17 -26 18 -35 2 -49 5 -58 19 -58 8 0 15 -6 15 -12 0 -10 3 -9 9 1 6 9 18
11 40 6 17 -4 31 -3 31 2 0 14 142 5 154 -11 6 -7 24 -17 40 -20 24 -6 27 -4
22 9 -4 13 -1 15 14 10 11 -4 20 -2 20 4 0 6 7 8 15 4 17 -6 16 -39 -1 -36 -5
1 -11 -7 -11 -18 -2 -27 11 -24 27 6 7 14 17 25 21 25 5 0 6 6 3 14 -3 8 0 17
7 22 8 4 10 3 5 -5 -10 -16 14 -36 47 -39 34 -2 35 6 1 18 -14 6 -23 14 -19
20 7 11 35 2 35 -11 0 -5 7 -9 15 -9 8 0 26 -5 40 -12 21 -9 25 -17 20 -37 -6
-31 8 -57 25 -46 9 6 9 9 0 15 -8 5 -9 17 -2 41 l9 34 7 -40 c4 -22 10 -53 13
-70 5 -29 4 -29 -11 -10 -12 15 -18 17 -24 7 -7 -10 -12 -8 -26 7 -20 22 -83
24 -79 3 2 -6 -6 -12 -16 -12 -11 0 -23 -5 -26 -10 -4 -6 -15 0 -27 15 -11 14
-18 29 -15 32 10 9 39 -6 32 -17 -3 -5 1 -10 9 -10 8 0 20 9 27 21 10 19 9 20
-11 14 -16 -5 -23 -2 -27 14 -3 12 -12 21 -20 21 -10 0 -13 -6 -9 -15 4 -11
-3 -19 -19 -25 -22 -8 -24 -12 -13 -29 7 -11 9 -24 5 -28 -5 -4 -11 -2 -15 4
-11 17 -55 4 -48 -13 3 -8 2 -14 -3 -14 -5 0 -8 18 -8 40 1 28 4 36 9 25 5 -8
17 -15 26 -15 15 0 15 2 2 10 -13 8 -13 10 1 10 11 0 17 9 17 25 0 15 -6 25
-15 25 -8 0 -11 -5 -8 -10 4 -6 -7 -13 -24 -16 -30 -6 -35 -14 -32 -41 1 -7
-3 -13 -9 -13 -5 0 -10 7 -10 15 0 8 -7 15 -15 15 -8 0 -15 5 -15 10 0 6 -5
10 -11 10 -5 0 -7 -5 -3 -12 4 -7 3 -8 -4 -4 -7 4 -12 16 -12 27 0 11 -7 27
-15 35 -8 9 -15 11 -15 5 0 -10 -57 -8 -101 3 -24 7 -26 5 -27 -26 0 -18 4
-36 11 -40 6 -4 8 -10 5 -13 -10 -11 -28 4 -28 24 0 9 -14 28 -31 40 -18 13
-29 19 -25 12 4 -6 3 -19 -3 -28 -9 -17 -10 -17 -16 -1 -4 9 -12 15 -20 12 -7
-3 -15 4 -18 15 -7 27 -23 27 -23 1 0 -11 4 -20 9 -20 5 0 7 -6 4 -14 -3 -8
-1 -17 6 -20 7 -3 -9 -3 -35 -1 l-48 5 0 -127 c0 -108 3 -128 17 -140 17 -14
17 -14 1 -9 -17 5 -18 -6 -16 -139 1 -136 6 -162 24 -133 5 8 9 7 13 -5 5 -14
13 -12 56 19 50 37 142 83 310 156 50 22 80 37 67 35 -12 -3 -20 -1 -16 4 3 5
18 9 34 9 37 0 81 20 73 33 -3 6 -1 7 6 3 6 -4 17 -4 24 2 14 10 105 47 96 38
-32 -32 -396 -241 -489 -281 -25 -10 -76 -38 -113 -62 -38 -24 -72 -41 -77
-38 -5 3 -9 -85 -10 -195 l-1 -200 679 0 c475 0 681 3 689 11 8 8 13 8 17 0 4
-6 29 -11 57 -11 36 0 49 4 49 15 0 9 6 12 15 9 9 -4 15 0 15 10 0 9 5 16 10
16 6 0 10 -7 10 -15 0 -8 7 -15 16 -15 8 0 13 -4 10 -8 -2 -4 9 -9 26 -10 27
-2 29 0 18 13 -7 8 -21 15 -31 15 -25 0 -24 20 1 27 11 3 20 13 20 22 0 13 -2
13 -9 2 -6 -9 -11 -10 -15 -3 -4 6 2 16 13 21 24 13 34 14 27 2 -13 -21 34 3
48 24 24 36 23 47 -4 51 -23 4 -23 4 -6 -9 13 -10 15 -16 8 -21 -7 -4 -12 -2
-12 3 0 6 -4 11 -9 11 -4 0 -6 -11 -4 -24 4 -20 1 -24 -20 -23 -15 1 -23 7
-20 15 3 6 -2 12 -11 12 -10 0 -13 -6 -10 -15 4 -11 -1 -15 -17 -16 -17 0 -20
-2 -9 -7 19 -9 26 -44 8 -40 -18 3 -78 -25 -78 -37 0 -5 -10 11 -23 35 -12 25
-20 47 -17 50 3 3 6 14 7 25 1 19 1 19 -11 2 -13 -16 -14 -16 -27 0 -12 15
-12 16 1 9 8 -4 6 0 -5 9 -11 9 -19 21 -17 26 1 5 -5 9 -14 9 -8 0 -12 5 -9
10 4 6 10 8 15 5 4 -3 11 2 14 11 5 12 1 14 -15 9 -15 -5 -19 -4 -15 4 4 6 2
11 -3 11 -6 0 -11 7 -11 15 0 8 5 15 11 15 5 0 7 5 4 11 -5 6 -12 4 -21 -8
-13 -17 -14 -17 -7 2 6 18 5 19 -13 5 -18 -14 -18 -14 -5 2 12 16 11 18 -5 19
-14 0 -11 4 11 14 27 13 27 14 8 15 -14 0 -23 6 -23 16 0 8 -5 12 -10 9 -5 -3
-10 2 -11 12 0 11 -3 13 -6 5 -2 -6 -9 -9 -14 -6 -6 3 -5 11 2 20 9 11 7 14
-12 15 -13 1 -28 1 -33 0 -5 -1 -6 5 -3 14 6 13 -4 20 -25 16 -5 0 -8 4 -8 10
0 6 9 8 23 4 22 -7 22 -7 2 9 -11 8 -16 16 -11 16 5 0 5 6 0 13 -5 7 -1 4 10
-7 l18 -21 -3 24 c-3 14 2 26 10 29 8 3 11 0 7 -7 -4 -6 -1 -11 9 -11 8 0 18
7 21 15 4 8 18 15 33 15 15 0 45 8 66 19 21 10 46 16 55 14 10 -3 20 2 23 11
7 17 -12 34 -22 19 -3 -6 -13 -9 -23 -8 -9 2 -42 -6 -74 -16 -32 -11 -63 -17
-69 -15 -5 2 -2 5 8 5 9 1 17 6 17 12 0 6 7 9 15 5 8 -3 15 -1 15 5 0 6 5 7
10 4 6 -3 10 -2 10 2 0 5 16 17 35 27 19 11 35 23 35 28 0 4 7 8 15 8 8 0 15
5 15 11 0 5 4 8 9 5 5 -3 14 1 21 10 21 25 -2 39 -38 23 -27 -12 -29 -14 -14
-26 10 -7 12 -12 5 -13 -6 0 -15 5 -19 11 -3 6 -18 8 -33 5 -21 -5 -19 -2 11
14 39 21 57 40 37 40 -7 0 -9 3 -6 7 4 3 2 12 -4 20 -9 10 -8 13 1 13 7 0 3 8
-9 19 -12 10 -20 25 -19 32 2 10 -7 13 -32 12 -31 -3 -27 1 39 34 68 33 72 37
50 45 l-23 9 31 25 c28 21 31 28 23 49 -7 18 -6 25 2 25 7 0 3 7 -8 15 -12 9
-14 14 -6 15 9 0 11 7 7 20 -7 22 10 28 19 8 3 -7 4 -4 1 7 -6 26 9 50 25 40
9 -5 11 -4 6 4 -4 6 -3 17 2 24 12 15 12 49 0 64 -5 7 -5 14 2 18 5 3 10 -2
10 -12 0 -16 1 -16 13 2 15 23 20 68 6 60 -5 -4 -9 -1 -9 5 0 6 6 13 13 15 7
3 13 30 14 73 4 105 -3 129 -45 157 -140 94 -144 97 -138 78 3 -10 8 -64 11
-121 l5 -102 -53 26 c-28 15 -53 27 -54 29 -2 1 17 24 42 50 47 52 46 65 -6
65 -15 0 -47 12 -73 26 -44 25 -57 46 -36 59 5 3 10 13 10 21 0 8 -4 13 -9 10
-5 -3 -12 1 -15 10 -3 8 -2 12 4 9 5 -3 13 9 18 27 12 49 43 49 90 -1 21 -23
47 -41 58 -42 41 -2 91 3 129 13 38 10 39 11 18 21 -13 5 -23 13 -23 17 0 9
51 0 66 -11 7 -6 21 -5 35 0 16 7 19 10 7 10 -15 1 -48 51 -48 74 0 5 7 15 17
22 14 11 13 13 -12 19 -16 4 -34 14 -39 21 -6 8 -40 25 -76 38 -36 13 -64 28
-63 33 1 9 -15 13 -62 16 -35 1 -46 -2 -40 -12 3 -6 -15 -2 -42 9 -32 12 -54
29 -66 50 -16 27 -17 30 -3 25 9 -3 16 -1 16 6 0 6 4 9 9 5 5 -3 12 -1 16 5 4
7 12 7 25 0 11 -6 21 -6 24 -1 3 5 -1 11 -9 15 -20 7 -19 32 1 40 21 8 24 8
24 -5 0 -5 -4 -8 -9 -5 -18 11 -17 -19 1 -36 19 -19 21 -17 19 17 -1 17 1 16
9 -4 16 -37 70 -72 57 -36 -4 8 -2 17 4 21 7 4 6 10 0 18 -6 7 -8 16 -5 19 4
4 -3 5 -15 2 -17 -3 -21 1 -21 23 0 15 -5 34 -11 42 -9 12 -10 11 -6 -7 5 -20
3 -22 -16 -11 -12 6 -23 9 -24 7 -1 -2 -13 6 -27 18 -25 22 -30 21 -27 -2 1
-5 -6 -1 -14 9 -8 11 -15 26 -15 33 0 7 -6 10 -14 7 -13 -5 -46 20 -46 35 0 4
7 16 15 27 8 10 15 27 15 37 0 11 4 15 12 11 8 -5 9 -2 5 10 -4 10 -7 20 -7
22 0 2 -11 4 -25 4 -18 0 -25 5 -25 20 0 17 -7 20 -42 20 -24 -1 -57 -7 -73
-14z m145 -82 c0 -8 -4 -12 -10 -9 -5 3 -10 10 -10 16 0 5 5 9 10 9 6 0 10 -7
10 -16z m-4 -663 c5 -5 18 -11 29 -14 16 -4 14 -5 -6 -6 -15 0 -32 6 -39 14
-13 16 0 21 16 6z m-510 -78 c-2 -2 -97 -12 -136 -14 -32 -2 -90 14 -90 25 0
5 9 6 95 6 33 0 74 4 90 9 23 6 31 4 36 -8 4 -9 6 -17 5 -18z m-461 -13 c3 -5
-1 -10 -9 -10 -9 0 -16 5 -16 10 0 6 4 10 9 10 6 0 13 -4 16 -10z m-42 -7 c-7
-2 -13 -9 -13 -14 0 -6 5 -7 10 -4 11 7 26 -22 17 -31 -3 -3 -22 5 -42 19 -31
21 -34 26 -18 30 24 6 61 7 46 0z m227 -13 c0 -5 -10 -10 -22 -9 -22 0 -22 1
-3 9 11 5 21 9 23 9 1 1 2 -3 2 -9z m294 -36 c5 -14 4 -15 -9 -4 -17 14 -19
20 -6 20 5 0 12 -7 15 -16z m-504 -102 c0 -5 -7 -9 -15 -9 -8 0 -12 4 -9 9 3
4 9 8 15 8 5 0 9 -4 9 -8z m1156 -49 c-10 -10 -19 5 -10 18 6 11 8 11 12 0 2
-7 1 -15 -2 -18z m-1176 -8 c7 -9 8 -15 2 -15 -5 0 -12 7 -16 15 -3 8 -4 15
-2 15 2 0 9 -7 16 -15z m1222 -22 c9 -10 18 -27 19 -37 5 -25 81 -69 91 -53 6
9 8 9 8 1 0 -14 -29 -83 -30 -70 0 13 -40 -30 -40 -43 0 -6 -7 -7 -17 -4 -10
4 -14 2 -9 -5 9 -16 -27 -24 -58 -13 -14 6 -32 8 -40 5 -8 -3 -16 3 -19 15 -4
15 -12 20 -29 19 -42 -5 -25 24 32 54 30 15 51 28 47 28 -5 0 -1 10 7 22 21
30 20 38 -4 38 -11 0 -20 4 -20 9 0 5 -9 13 -21 16 -23 8 -16 20 16 28 38 9
52 7 67 -10z m-1218 -28 c-4 -8 -8 -15 -10 -15 -2 0 -4 7 -4 15 0 8 4 15 10
15 5 0 7 -7 4 -15z m-69 -35 c3 -5 1 -10 -4 -10 -6 0 -11 5 -11 10 0 6 2 10 4
10 3 0 8 -4 11 -10z m190 -10 c3 -5 2 -10 -4 -10 -5 0 -13 5 -16 10 -3 6 -2
10 4 10 5 0 13 -4 16 -10z m39 -51 c-8 -14 -24 -10 -24 6 0 9 6 12 15 9 8 -4
12 -10 9 -15z m-37 -9 c-2 -24 -10 -25 -26 -6 -10 11 -8 15 6 19 10 3 19 5 20
6 1 0 1 -8 0 -19z m1244 -7 c-12 -20 -14 -14 -5 12 4 9 9 14 11 11 3 -2 0 -13
-6 -23z m-80 -110 c-12 -20 -14 -14 -5 12 4 9 9 14 11 11 3 -2 0 -13 -6 -23z
m-1116 -10 l18 -28 -21 19 c-12 11 -22 23 -22 28 0 14 7 9 25 -19z m-118 -19
c-3 -3 -12 -4 -19 -1 -8 3 -5 6 6 6 11 1 17 -2 13 -5z m168 -4 c3 -6 -1 -7 -9
-4 -18 7 -21 14 -7 14 6 0 13 -4 16 -10z m-260 -20 c-3 -5 -10 -10 -16 -10 -5
0 -9 5 -9 10 0 6 7 10 16 10 8 0 12 -4 9 -10z m75 -8 c0 -9 -47 -8 -57 1 -3 4
8 7 25 7 18 0 32 -4 32 -8z m125 -2 c-3 -5 -12 -7 -20 -3 -21 7 -19 13 6 13
11 0 18 -4 14 -10z m132 -26 c11 4 8 -2 -7 -14 -18 -14 -33 -18 -55 -14 -37 7
-57 25 -46 42 6 9 13 8 31 -8 25 -22 51 -12 34 13 -5 7 -1 4 8 -6 11 -12 25
-17 35 -13z m-257 -61 c0 -9 -3 -13 -7 -10 -3 4 -13 1 -21 -6 -13 -11 -14 -9
-1 11 16 26 29 29 29 5z m414 -29 c3 -8 2 -12 -4 -9 -6 3 -10 10 -10 16 0 14
7 11 14 -7z m-316 -31 c-9 -10 -18 -25 -21 -33 -4 -10 -6 -8 -6 7 -1 12 7 27
17 32 25 15 27 13 10 -6z m532 7 c0 -5 -6 -10 -14 -10 -8 0 -23 -3 -33 -6 -16
-5 -16 -4 1 10 22 18 46 21 46 6z m-80 -24 c0 -3 -4 -8 -10 -11 -5 -3 -10 -1
-10 4 0 6 5 11 10 11 6 0 10 -2 10 -4z m-536 -32 c4 -11 1 -14 -11 -12 -9 2
-18 9 -21 16 -6 18 25 15 32 -4z m-54 -4 c0 -11 -37 -19 -61 -13 -15 4 -17 8
-8 14 16 9 69 9 69 -1z m425 -50 c3 -5 1 -10 -4 -10 -6 0 -11 5 -11 10 0 6 2
10 4 10 3 0 8 -4 11 -10z m916 -53 c-1 -12 -15 -9 -19 4 -3 6 1 10 8 8 6 -3
11 -8 11 -12z m-1404 -33 c-3 -3 -12 -4 -19 -1 -8 3 -5 6 6 6 11 1 17 -2 13
-5z m206 -25 c6 -21 -8 -26 -20 -6 -13 20 -12 36 2 31 7 -3 15 -14 18 -25z
m-153 5 c0 -8 -4 -12 -10 -9 -5 3 -10 10 -10 16 0 5 5 9 10 9 6 0 10 -7 10
-16z m1155 6 c-11 -5 -29 -8 -40 -8 -16 0 -15 2 5 8 34 11 60 11 35 0z m-1205
-15 c0 -8 -2 -15 -4 -15 -2 0 -6 7 -10 15 -3 8 -1 15 4 15 6 0 10 -7 10 -15z
m-13 -47 c-3 -8 -6 -5 -6 6 -1 11 2 17 5 13 3 -3 4 -12 1 -19z m1180 -34 c-3
-3 -12 -4 -19 -1 -8 3 -5 6 6 6 11 1 17 -2 13 -5z m-2 -172 c-3 -3 -11 0 -18
7 -9 10 -8 11 6 5 10 -3 15 -9 12 -12z m12 -161 c-1 -11 -6 -17 -14 -14 -10 4
-11 9 -2 19 15 19 18 18 16 -5z m53 -41 c12 -8 12 -10 1 -10 -8 0 -20 -8 -28
-17 -13 -16 -13 -16 -4 3 6 12 7 24 4 28 -10 10 10 7 27 -4z m17 -26 c-3 -3
-12 -4 -19 -1 -8 3 -5 6 6 6 11 1 17 -2 13 -5z m3 -23 c0 -4 11 -19 24 -32
l24 -25 -26 2 c-15 1 -29 3 -31 3 -2 1 2 8 9 16 10 13 9 15 -11 15 -18 0 -20
3 -10 9 11 7 10 10 -5 14 -16 4 -16 5 4 6 12 0 22 -3 22 -8z m-580 -21 c0 -5
-2 -10 -4 -10 -3 0 -8 5 -11 10 -3 6 -1 10 4 10 6 0 11 -4 11 -10z m67 4 c-3
-3 -12 -4 -19 -1 -8 3 -5 6 6 6 11 1 17 -2 13 -5z m-127 -39 c-7 -8 -20 -15
-28 -15 -13 0 -12 3 4 15 25 19 40 19 24 0z m107 -1 c-3 -3 -12 -4 -19 -1 -8
3 -5 6 6 6 11 1 17 -2 13 -5z m593 -19 c0 -1 -9 -5 -20 -8 -12 -3 -20 0 -20 8
0 8 8 11 20 8 11 -3 20 -7 20 -8z"/>
<path d="M1385 2050 c3 -5 8 -10 11 -10 2 0 4 5 4 10 0 6 -5 10 -11 10 -5 0
-7 -4 -4 -10z"/>
<path d="M1596 1755 c4 -8 8 -15 10 -15 2 0 4 7 4 15 0 8 -4 15 -10 15 -5 0
-7 -7 -4 -15z"/>
<path d="M2184 1759 c-3 -5 11 -9 30 -9 20 0 36 3 36 8 0 10 -59 11 -66 1z"/>
<path d="M2260 1761 c0 -6 4 -12 8 -15 13 -8 52 5 46 15 -7 12 -54 12 -54 0z"/>
<path d="M2335 1760 c-3 -5 -1 -10 4 -10 6 0 11 5 11 10 0 6 -2 10 -4 10 -3 0
-8 -4 -11 -10z"/>
<path d="M2113 1746 c5 -13 2 -15 -18 -11 -76 16 -80 16 -65 4 12 -8 7 -9 -22
-5 -21 2 -40 1 -43 -4 -3 -4 -14 -6 -26 -3 -12 4 -25 0 -31 -8 -7 -11 -11 -11
-15 -1 -6 15 -18 15 -83 1 -48 -10 -50 -12 -50 -44 0 -18 -12 -73 -27 -121
-14 -49 -28 -104 -31 -122 -2 -18 -12 -38 -22 -45 -11 -8 -23 -38 -31 -75 -7
-34 -16 -62 -20 -62 -4 0 -10 -13 -14 -30 -4 -16 -10 -30 -14 -30 -9 0 -41
-77 -41 -97 0 -7 13 -10 38 -7 20 3 44 5 52 4 8 0 44 -1 79 -1 71 0 74 -20 3
-21 -23 0 -39 -4 -36 -9 5 -8 -6 -11 -66 -14 -14 0 -35 5 -47 12 -22 13 -23
12 -23 -22 0 -61 11 -71 86 -79 55 -6 74 -12 102 -37 19 -17 41 -28 49 -25 8
3 12 2 9 -3 -8 -13 21 -22 83 -27 53 -4 54 -4 36 16 -27 30 -5 23 34 -10 18
-15 31 -34 29 -42 -6 -18 156 -80 195 -74 22 3 27 1 23 -10 -4 -9 2 -14 15
-14 15 0 19 5 15 16 -5 13 -1 14 24 9 32 -7 39 5 15 25 -10 8 -29 10 -53 7
-25 -5 -32 -3 -22 3 24 15 63 11 90 -10 14 -11 33 -20 43 -20 10 0 15 -5 12
-11 -4 -6 -13 -8 -21 -5 -7 3 -16 1 -20 -5 -3 -6 -13 -8 -21 -5 -9 4 -11 2 -7
-6 5 -8 2 -9 -9 -5 -10 3 -17 4 -17 1 0 -13 52 -23 75 -14 15 6 26 6 30 0 4
-6 -2 -10 -12 -11 -11 0 -2 -8 22 -20 22 -10 48 -17 58 -15 9 2 15 1 12 -4 -3
-4 3 -10 13 -13 9 -2 25 -8 35 -12 16 -7 18 0 15 91 l-3 99 -53 1 c-43 1 -51
-1 -41 -12 9 -11 7 -14 -10 -14 -11 0 -22 5 -22 10 -1 6 -2 15 -3 20 0 6 -4
10 -8 10 -5 0 -20 0 -34 0 -18 0 -24 -4 -21 -13 4 -10 -6 -14 -39 -13 -29 0
-44 4 -44 13 0 15 -14 17 -39 3 -35 -18 -110 -19 -128 -2 -10 11 -12 17 -4 20
6 2 8 8 5 14 -4 7 2 7 17 2 13 -4 32 -8 42 -9 10 -1 23 -8 28 -16 7 -11 9 -9
9 9 0 19 3 21 19 13 10 -6 48 -8 87 -4 87 7 81 7 132 -5 36 -8 42 -8 42 6 0
12 3 13 12 4 17 -17 45 -15 52 4 11 28 6 120 -6 132 -9 9 -9 12 0 12 7 0 12 7
12 16 0 13 -3 14 -13 5 -11 -8 -29 -3 -78 21 -35 17 -58 33 -52 35 7 3 25 -5
41 -17 20 -15 40 -20 63 -18 33 3 34 4 34 48 0 39 -3 45 -22 48 -13 2 -23 7
-23 11 0 5 11 6 25 3 l25 -4 0 232 0 232 -35 -6 c-20 -4 -35 -3 -35 2 0 6 16
13 35 16 33 7 35 9 35 46 0 33 -3 38 -19 35 -29 -5 -74 9 -79 26 -4 11 -2 12
9 2 7 -7 20 -13 29 -13 12 1 11 4 -4 15 -25 19 -55 19 -80 0 -11 -8 -28 -13
-38 -9 -10 3 -18 1 -18 -4 0 -6 -9 -8 -20 -5 -13 3 -20 0 -20 -8 0 -10 -2 -11
-8 -2 -7 10 -31 18 -121 40 -20 5 -23 3 -18 -11z m251 -41 c3 -8 1 -15 -4 -15
-6 0 -10 7 -10 15 0 8 2 15 4 15 2 0 6 -7 10 -15z m43 -11 c-3 -3 -12 -4 -19
-1 -8 3 -5 6 6 6 11 1 17 -2 13 -5z m-10 -54 c8 0 13 -6 11 -12 -3 -9 -24 -12
-68 -10 -68 3 -84 8 -74 23 3 5 10 6 16 3 21 -13 89 -14 87 -1 -3 24 4 41 8
20 2 -13 11 -23 20 -23z m-564 -17 c-7 -2 -19 -2 -25 0 -7 3 -2 5 12 5 14 0
19 -2 13 -5z m77 -3 c-8 -5 -22 -10 -30 -10 -13 0 -13 1 0 10 8 5 22 10 30 10
13 0 13 -1 0 -10z m277 4 c-3 -3 -12 -4 -19 -1 -8 3 -5 6 6 6 11 1 17 -2 13
-5z m138 -474 c3 -6 -4 -10 -17 -10 -18 0 -20 2 -8 10 19 12 18 12 25 0z
m-100 -30 c-4 -6 -15 -8 -26 -5 -15 5 -19 1 -19 -16 0 -18 -3 -20 -12 -11 -16
16 -31 15 -22 0 5 -8 1 -7 -10 2 -17 13 -17 14 1 21 10 3 21 5 25 3 4 -3 9 0
13 6 3 5 17 10 31 10 15 0 23 -4 19 -10z m69 -4 c-10 -8 -21 -11 -24 -8 -3 4
-9 10 -14 15 -5 4 6 7 24 7 32 0 33 -1 14 -14z m-228 -33 c-1 -1 -12 0 -23 3
-17 5 -19 9 -10 19 9 10 14 9 24 -4 6 -9 10 -17 9 -18z m44 11 c0 -2 -7 -4
-15 -4 -8 0 -15 4 -15 10 0 5 7 7 15 4 8 -4 15 -8 15 -10z m-247 -19 c18 -13
18 -14 -5 -26 -21 -11 -22 -11 -9 4 11 14 11 18 -3 23 -9 3 -23 3 -32 0 -8 -3
-12 -2 -9 4 9 14 37 12 58 -5z m125 8 c-15 -2 -42 -2 -60 0 -18 2 -6 4 27 4
33 0 48 -2 33 -4z m267 -23 c3 -6 -1 -7 -9 -4 -18 7 -21 14 -7 14 6 0 13 -4
16 -10z m105 -4 c0 -2 -7 -7 -16 -10 -8 -3 -12 -2 -9 4 6 10 25 14 25 6z
m-185 -26 c3 -6 -1 -7 -9 -4 -18 7 -21 14 -7 14 6 0 13 -4 16 -10z m-573 -9
c14 8 23 8 31 0 8 -8 5 -11 -10 -11 -12 0 -28 -3 -37 -6 -11 -4 -16 -1 -15 12
0 11 3 14 6 7 3 -10 10 -10 25 -2z m408 -6 c0 -2 -7 -5 -15 -9 -9 -3 -15 0
-15 9 0 9 6 12 15 9 8 -4 15 -7 15 -9z m330 -5 c0 -5 -2 -10 -4 -10 -3 0 -8 5
-11 10 -3 6 -1 10 4 10 6 0 11 -4 11 -10z m37 4 c-3 -3 -12 -4 -19 -1 -8 3 -5
6 6 6 11 1 17 -2 13 -5z m48 -4 c-3 -5 -12 -10 -18 -10 -7 0 -6 4 3 10 19 12
23 12 15 0z m-595 -16 c0 -2 -12 -4 -27 -4 -21 0 -24 3 -14 9 13 8 41 5 41 -5z
m413 9 c-7 -2 -21 -2 -30 0 -10 3 -4 5 12 5 17 0 24 -2 18 -5z m237 -23 c0 -5
-4 -10 -9 -10 -6 0 -13 5 -16 10 -3 6 1 10 9 10 9 0 16 -4 16 -10z m-543 -26
c-3 -3 -12 -4 -19 -1 -8 3 -5 6 6 6 11 1 17 -2 13 -5z m-67 -8 c0 -2 -7 -7
-16 -10 -8 -3 -12 -2 -9 4 6 10 25 14 25 6z m180 -6 c0 -5 -2 -10 -4 -10 -3 0
-8 5 -11 10 -3 6 -1 10 4 10 6 0 11 -4 11 -10z m302 -9 c14 -12 -36 -6 -57 7
-17 10 -15 11 15 6 19 -4 38 -10 42 -13z m68 15 c0 -2 -9 -6 -20 -9 -11 -3
-20 -1 -20 4 0 5 9 9 20 9 11 0 20 -2 20 -4z m-470 -37 c0 -14 -16 -11 -29 5
-10 12 -8 13 8 9 12 -3 21 -9 21 -14z m485 1 c3 -5 1 -10 -4 -10 -6 0 -11 5
-11 10 0 6 2 10 4 10 3 0 8 -4 11 -10z m-585 -21 c0 -6 -4 -7 -10 -4 -5 3 -10
11 -10 16 0 6 5 7 10 4 6 -3 10 -11 10 -16z m35 -7 c-3 -3 -11 0 -18 7 -9 10
-8 11 6 5 10 -3 15 -9 12 -12z m580 -122 c15 -7 10 -9 -22 -9 -24 -1 -43 -5
-43 -11 0 -5 -5 -10 -11 -10 -5 0 -7 5 -4 10 3 6 -2 11 -12 11 -10 1 -4 5 12
9 40 10 56 10 80 0z m12 -86 c-3 -3 -12 -4 -19 -1 -8 3 -5 6 6 6 11 1 17 -2
13 -5z"/>
<path d="M1700 1735 c-6 -8 -8 -20 -4 -27 5 -7 14 -38 20 -68 l11 -55 11 39
c8 29 8 50 0 82 -13 47 -19 52 -38 29z"/>
<path d="M550 1660 c0 -5 9 -10 21 -10 11 0 17 5 14 10 -3 6 -13 10 -21 10 -8
0 -14 -4 -14 -10z"/>
<path d="M495 1650 c3 -5 8 -10 11 -10 2 0 4 5 4 10 0 6 -5 10 -11 10 -5 0 -7
-4 -4 -10z"/>
<path d="M0 1640 c0 -6 7 -10 15 -10 8 0 15 2 15 4 0 2 -7 6 -15 10 -8 3 -15
1 -15 -4z"/>
<path d="M1660 1595 c0 -63 13 -71 30 -20 13 39 6 75 -16 75 -10 0 -14 -14
-14 -55z"/>
<path d="M1695 1530 c-4 -12 -5 -24 -2 -27 3 -2 8 5 12 17 4 12 5 24 2 27 -3
2 -8 -5 -12 -17z"/>
<path d="M1545 1189 c-4 -6 -5 -12 -2 -15 2 -3 7 2 10 11 7 17 1 20 -8 4z"/>
<path d="M20 1170 c0 -5 5 -10 11 -10 5 0 7 5 4 10 -3 6 -8 10 -11 10 -2 0 -4
-4 -4 -10z"/>
<path d="M66 1145 c4 -8 12 -15 20 -15 19 0 18 16 -2 24 -22 9 -24 8 -18 -9z"/>
<path d="M117 1153 c-13 -13 -7 -21 13 -16 11 3 17 9 14 14 -6 11 -18 12 -27
2z"/>
<path d="M0 1084 c0 -8 5 -12 10 -9 6 3 10 10 10 16 0 5 -4 9 -10 9 -5 0 -10
-7 -10 -16z"/>
<path d="M370 1083 c1 -12 48 -63 57 -63 5 0 17 10 27 21 14 17 15 24 6 33 -9
8 -14 8 -17 -1 -6 -16 -30 -17 -39 -1 -5 8 -2 9 9 5 10 -3 17 -2 17 3 0 6 -13
10 -30 10 -16 0 -30 -3 -30 -7z"/>
<path d="M25 1060 c4 -6 11 -8 16 -5 14 9 11 15 -7 15 -8 0 -12 -5 -9 -10z"/>
<path d="M640 1067 c0 -2 14 -13 30 -25 31 -24 41 -15 14 12 -13 14 -44 22
-44 13z"/>
<path d="M705 1060 c-3 -5 -2 -10 4 -10 5 0 13 5 16 10 3 6 2 10 -4 10 -5 0
-13 -4 -16 -10z"/>
<path d="M1635 926 c36 -30 41 -31 49 -10 8 21 9 21 -39 29 l-40 7 30 -26z"/>
<path d="M1916 841 c5 -5 20 -12 34 -15 24 -7 24 -6 6 8 -21 17 -57 23 -40 7z"/>
<path d="M2065 840 c-3 -5 1 -10 9 -10 9 0 16 5 16 10 0 6 -4 10 -9 10 -6 0
-13 -4 -16 -10z"/>
<path d="M2110 840 c-13 -8 -12 -10 3 -10 9 0 17 5 17 10 0 12 -1 12 -20 0z"/>
<path d="M1516 744 c-11 -8 -16 -14 -10 -14 13 0 39 18 34 24 -3 2 -14 -2 -24
-10z"/>
<path d="M1485 710 c-3 -6 1 -7 9 -4 18 7 21 14 7 14 -6 0 -13 -4 -16 -10z"/>
<path d="M1420 620 c0 -5 5 -10 11 -10 5 0 7 5 4 10 -3 6 -8 10 -11 10 -2 0
-4 -4 -4 -10z"/>
<path d="M1370 590 c-8 -5 -10 -10 -5 -10 6 0 17 5 25 10 8 5 11 10 5 10 -5 0
-17 -5 -25 -10z"/>
<path d="M2142 591 c-10 -6 -15 -45 -18 -134 -5 -125 -4 -127 25 -186 17 -33
33 -79 36 -103 5 -37 4 -40 -6 -20 -7 12 -16 22 -22 22 -13 0 -1 -46 31 -110
l27 -55 56 -3 55 -3 12 168 c24 321 24 330 10 310 -32 -46 -33 -47 -48 -37
-12 8 -13 12 -2 19 11 7 11 9 -2 14 -23 9 -30 -46 -24 -212 6 -165 1 -151 -37
94 -21 135 -31 178 -51 208 -13 20 -25 37 -27 37 -1 0 -8 -4 -15 -9z"/>
<path d="M1961 504 c0 -11 3 -14 6 -6 3 7 2 16 -1 19 -3 4 -6 -2 -5 -13z"/>
<path d="M1313 495 c-15 -16 -16 -25 -5 -25 4 0 13 9 20 20 14 23 3 26 -15 5z"/>
<path d="M1364 499 c-3 -6 -1 -16 6 -22 10 -9 12 -8 7 5 -3 9 -1 19 6 22 9 3
9 5 0 5 -6 1 -15 -4 -19 -10z"/>
<path d="M1275 470 c-3 -4 -3 -15 0 -22 4 -9 -3 -19 -17 -26 -17 -8 -19 -11
-6 -11 31 -2 46 10 40 31 -4 18 -3 19 17 9 11 -7 21 -16 21 -21 0 -6 4 -10 10
-10 5 0 7 7 4 15 -7 18 -62 46 -69 35z"/>
<path d="M1983 421 c8 -23 13 -28 15 -16 2 10 -3 25 -12 33 -14 15 -15 13 -3
-17z"/>
<path d="M0 429 c0 -5 5 -7 10 -4 5 3 10 8 10 11 0 2 -4 4 -10 4 -5 0 -10 -5
-10 -11z"/>
<path d="M2406 405 c-3 -8 -1 -15 4 -15 6 0 10 7 10 15 0 8 -2 15 -4 15 -2 0
-6 -7 -10 -15z"/>
<path d="M1396 393 c-6 -14 -5 -15 5 -6 7 7 10 15 7 18 -3 3 -9 -2 -12 -12z"/>
<path d="M1994 361 c0 -12 4 -21 9 -21 4 0 5 -4 2 -10 -3 -5 -1 -10 4 -10 15
0 14 22 -2 44 -12 16 -13 16 -13 -3z"/>
<path d="M2405 360 c-3 -5 -1 -10 4 -10 6 0 11 5 11 10 0 6 -2 10 -4 10 -3 0
-8 -4 -11 -10z"/>
<path d="M1320 350 c0 -5 5 -10 11 -10 5 0 7 5 4 10 -3 6 -8 10 -11 10 -2 0
-4 -4 -4 -10z"/>
<path d="M2390 330 c0 -5 5 -10 11 -10 5 0 7 5 4 10 -3 6 -8 10 -11 10 -2 0
-4 -4 -4 -10z"/>
<path d="M1415 310 c4 -6 11 -8 16 -5 14 9 11 15 -7 15 -8 0 -12 -5 -9 -10z"/>
<path d="M2487 299 c-3 -12 -10 -18 -16 -14 -7 3 -8 0 -5 -9 3 -9 1 -16 -6
-16 -6 0 -8 -4 -5 -10 3 -5 2 -10 -3 -10 -13 0 -53 -69 -50 -85 5 -24 -17 -17
-22 7 -6 23 21 90 46 116 8 7 14 16 14 20 0 4 -12 -6 -25 -21 -25 -29 -33 -21
-15 14 6 11 7 19 1 19 -5 0 -14 -13 -20 -30 -7 -22 -7 -30 1 -30 6 0 4 -8 -5
-18 -26 -29 -51 -232 -28 -232 8 0 23 25 25 42 1 3 5 10 10 15 5 5 6 3 2 -4
-4 -7 -2 -13 3 -13 6 0 11 -7 11 -16 0 -8 -4 -13 -9 -9 -5 3 -12 1 -16 -5 -4
-6 13 -10 45 -10 43 0 53 3 57 20 3 11 8 20 12 20 3 0 8 63 9 140 4 134 1 164
-11 119z m-42 -116 c-8 -33 -27 -58 -22 -28 5 26 18 55 24 55 3 0 2 -12 -2
-27z m-25 -68 c0 -8 -7 -15 -15 -15 -13 0 -14 3 -3 15 16 18 18 18 18 0z m-6
-33 c2 -4 1 -13 -3 -20 -4 -8 -11 -5 -19 8 -10 16 -10 20 2 20 8 0 17 -4 20
-8z"/>
<path d="M1335 300 c4 -6 11 -8 16 -5 14 9 11 15 -7 15 -8 0 -12 -5 -9 -10z"/>
<path d="M1486 295 c-17 -13 -17 -15 -3 -21 10 -3 17 -12 17 -19 0 -8 5 -17
12 -21 6 -4 8 -3 5 3 -4 6 2 13 13 16 11 3 20 1 20 -5 0 -5 5 -6 11 -2 16 9
-8 23 -31 17 -18 -5 -35 21 -24 38 7 12 2 11 -20 -6z"/>
<path d="M2010 300 c0 -5 5 -10 11 -10 5 0 7 5 4 10 -3 6 -8 10 -11 10 -2 0
-4 -4 -4 -10z"/>
<path d="M1436 284 c-5 -14 -4 -15 9 -4 17 14 19 20 6 20 -5 0 -12 -7 -15 -16z"/>
<path d="M2023 244 c2 -14 -1 -31 -9 -38 -11 -12 -10 -15 5 -19 13 -3 18 -12
16 -31 -2 -14 0 -26 4 -26 7 0 31 -78 34 -111 1 -12 15 -16 60 -18 l59 -2 -56
80 c-31 44 -56 83 -56 86 0 4 -10 29 -21 56 -23 52 -45 66 -36 23z"/>
<path d="M1670 251 c0 -6 4 -13 10 -16 6 -3 7 1 4 9 -7 18 -14 21 -14 7z"/>
<path d="M1543 223 c9 -2 25 -2 35 0 9 3 1 5 -18 5 -19 0 -27 -2 -17 -5z"/>
<path d="M1675 210 c3 -5 8 -10 11 -10 2 0 4 5 4 10 0 6 -5 10 -11 10 -5 0 -7
-4 -4 -10z"/>
<path d="M1595 202 c3 -3 -2 -10 -10 -16 -10 -8 -12 -16 -5 -26 8 -12 10 -13
10 -1 0 8 7 22 15 31 13 15 13 17 0 17 -8 0 -13 -3 -10 -5z"/>
<path d="M1404 192 c3 -5 0 -13 -6 -15 -9 -4 -10 -6 -1 -6 17 -1 25 16 12 25
-7 4 -9 3 -5 -4z"/>
<path d="M1468 193 c7 -3 16 -2 19 1 4 3 -2 6 -13 5 -11 0 -14 -3 -6 -6z"/>
<path d="M1505 190 c-4 -6 6 -10 22 -10 22 0 25 2 13 10 -19 12 -27 12 -35 0z"/>
<path d="M1500 155 c0 -8 9 -19 20 -25 14 -7 20 -7 20 0 0 5 -7 10 -16 10 -10
0 -14 6 -10 15 3 8 1 15 -4 15 -6 0 -10 -7 -10 -15z"/>
<path d="M1465 141 c-3 -5 -2 -12 3 -15 5 -3 9 1 9 9 0 17 -3 19 -12 6z"/>
<path d="M1768 133 c7 -3 16 -2 19 1 4 3 -2 6 -13 5 -11 0 -14 -3 -6 -6z"/>
<path d="M1688 123 c7 -3 16 -2 19 1 4 3 -2 6 -13 5 -11 0 -14 -3 -6 -6z"/>
<path d="M1810 110 c-9 -6 -10 -10 -3 -10 6 0 15 5 18 10 8 12 4 12 -15 0z"/>
<path d="M1676 94 c-4 -11 -2 -15 8 -11 7 3 19 0 25 -6 8 -8 11 -8 11 1 0 6
-9 16 -19 21 -15 8 -20 7 -25 -5z"/>
<path d="M1490 89 c0 -5 5 -7 10 -4 6 3 10 8 10 11 0 2 -4 4 -10 4 -5 0 -10
-5 -10 -11z"/>
<path d="M1634 81 c4 -5 1 -11 -6 -13 -7 -3 -8 -7 -2 -11 5 -3 15 3 22 14 10
16 9 19 -4 19 -8 0 -13 -4 -10 -9z"/>
<path d="M1655 56 c-11 -8 -26 -11 -35 -8 -12 4 -13 2 -3 -8 7 -8 22 -15 34
-17 18 -3 19 -1 10 11 -9 11 -8 15 5 20 23 9 24 8 24 -11 0 -15 2 -16 9 -3 19
29 -11 40 -44 16z"/>
<path d="M1800 49 c0 -5 5 -7 10 -4 6 3 10 8 10 11 0 2 -4 4 -10 4 -5 0 -10
-5 -10 -11z"/>
<path d="M1740 19 c0 -5 5 -7 10 -4 6 3 10 8 10 11 0 2 -4 4 -10 4 -5 0 -10
-5 -10 -11z"/>
<path d="M1705 10 c-3 -6 1 -7 9 -4 18 7 21 14 7 14 -6 0 -13 -4 -16 -10z"/>
<path d="M1946 8 c3 -5 10 -6 15 -3 13 9 11 12 -6 12 -8 0 -12 -4 -9 -9z"/>
</g>
</svg>
