<?xml version="1.0" standalone="no"?>
<!DOCTYPE svg PUBLIC "-//W3C//DTD SVG 20010904//EN"
 "http://www.w3.org/TR/2001/REC-SVG-20010904/DTD/svg10.dtd">
<svg version="1.0" xmlns="http://www.w3.org/2000/svg"
 width="140.000000pt" height="250.000000pt" viewBox="0 0 140.000000 250.000000"
 preserveAspectRatio="xMidYMid meet">

<g transform="translate(0.000000,250.000000) scale(0.100000,-0.100000)"
fill="#000000" stroke="none">
<path d="M662 2334 c-90 -23 -131 -50 -152 -99 -11 -25 -26 -45 -34 -45 -7 0
-24 -8 -36 -18 l-23 -18 37 -69 c20 -38 36 -82 36 -101 0 -85 41 -198 95 -262
31 -37 49 -92 35 -106 -5 -5 -35 -13 -66 -17 -61 -8 -94 -31 -121 -84 -9 -16
-26 -43 -39 -58 -29 -35 -33 -117 -8 -175 8 -20 24 -73 34 -117 13 -54 26 -84
40 -94 16 -11 20 -24 20 -68 0 -79 18 -188 45 -273 13 -41 31 -115 40 -165 8
-49 22 -115 30 -145 8 -30 15 -65 15 -76 0 -28 45 -58 75 -50 21 5 24 14 30
83 4 42 5 113 3 157 l-6 81 14 -65 c52 -239 76 -307 109 -302 66 9 62 2 58
114 -2 57 -13 150 -24 207 -11 58 -19 147 -19 205 0 55 -7 139 -14 186 -13 73
-12 89 0 114 10 20 14 65 14 143 0 62 4 113 9 113 11 0 47 -100 61 -170 6 -30
16 -78 22 -107 9 -44 9 -56 -6 -77 -17 -26 -34 -116 -22 -116 4 0 11 10 16 23
8 18 9 15 6 -18 -2 -22 -7 -51 -12 -65 l-8 -25 36 30 c50 42 62 73 55 148 -4
34 -2 91 4 127 15 97 11 192 -11 237 -10 21 -25 64 -33 95 -23 88 -45 118
-112 153 -59 30 -60 32 -59 72 1 52 74 182 101 179 35 -2 58 68 61 193 2 63 1
134 -3 158 -16 110 -171 198 -293 167z m-92 -360 c0 -17 -22 -14 -28 4 -2 7 3
12 12 12 9 0 16 -7 16 -16z m188 -14 c-2 -6 -8 -6 -18 0 -13 9 -13 11 0 20 15
10 25 0 18 -20z m-265 -657 c-6 -105 -16 -142 -29 -109 -4 10 -2 40 4 67 7 27
9 62 6 79 -6 25 7 60 22 60 2 0 1 -44 -3 -97z"/>
<path d="M665 237 c-22 -22 -58 -48 -80 -58 -25 -12 -33 -19 -21 -19 21 0 156
76 156 88 -1 28 -19 24 -55 -11z"/>
<path d="M875 95 c-16 -7 -23 -14 -14 -14 8 -1 24 6 35 14 24 18 18 18 -21 0z"/>
</g>
</svg>
