<?xml version="1.0" standalone="no"?>
<!DOCTYPE svg PUBLIC "-//W3C//DTD SVG 20010904//EN"
 "http://www.w3.org/TR/2001/REC-SVG-20010904/DTD/svg10.dtd">
<svg version="1.0" xmlns="http://www.w3.org/2000/svg"
 width="157.000000pt" height="250.000000pt" viewBox="0 0 157.000000 250.000000"
 preserveAspectRatio="xMidYMid meet">

<g transform="translate(0.000000,250.000000) scale(0.100000,-0.100000)"
fill="#000000" stroke="none">
<path d="M707 2306 c-72 -30 -85 -41 -103 -86 -10 -24 -25 -40 -44 -47 -45
-17 -47 -38 -12 -103 18 -32 32 -72 32 -91 1 -89 51 -220 108 -281 20 -22 25
-38 26 -87 2 -86 11 -91 92 -49 62 33 69 40 83 84 26 80 73 154 97 154 16 0
27 12 43 49 18 42 21 69 21 181 0 147 -8 175 -63 227 -38 36 -132 73 -185 73
-20 0 -63 -11 -95 -24z m-47 -346 c0 -13 -5 -18 -15 -14 -16 7 -19 17 -8 27
12 13 23 7 23 -13z m190 -5 c0 -9 -6 -12 -15 -9 -8 4 -12 10 -9 15 8 14 24 10
24 -6z"/>
<path d="M690 1461 c-15 -29 -12 -41 13 -50 18 -7 24 -4 34 18 7 14 12 32 13
39 0 20 -48 14 -60 -7z"/>
<path d="M760 1469 c0 -5 5 -7 10 -4 6 3 10 8 10 11 0 2 -4 4 -10 4 -5 0 -10
-5 -10 -11z"/>
<path d="M640 1435 l-25 -14 28 -1 c17 0 27 5 27 15 0 18 1 18 -30 0z"/>
<path d="M750 1409 c0 -13 14 -17 35 -9 17 6 16 7 -8 12 -15 3 -27 2 -27 -3z"/>
<path d="M562 1398 c-15 -15 -16 -38 -2 -38 12 0 23 25 18 40 -2 7 -7 7 -16
-2z"/>
<path d="M630 1406 c0 -2 7 -6 15 -10 8 -3 15 -1 15 4 0 6 -7 10 -15 10 -8 0
-15 -2 -15 -4z"/>
<path d="M680 1390 c0 -8 24 -20 41 -20 6 0 8 4 5 9 -8 12 -46 21 -46 11z"/>
<path d="M620 1351 l0 -29 86 -7 c68 -5 88 -4 95 6 15 24 10 31 -16 25 -14 -4
-48 2 -82 14 -75 26 -83 26 -83 -9z"/>
<path d="M740 1370 c0 -5 11 -10 24 -10 14 0 28 5 31 10 4 6 -7 10 -24 10 -17
0 -31 -4 -31 -10z"/>
<path d="M926 1259 c-3 -35 -2 -67 3 -72 4 -4 11 20 14 55 3 35 2 67 -2 71 -4
4 -11 -20 -15 -54z"/>
<path d="M527 1158 c-14 -11 -15 -19 -7 -49 11 -38 35 -67 47 -55 4 4 2 16 -5
26 -8 14 -9 27 -2 45 6 15 10 31 10 36 0 13 -23 11 -43 -3z"/>
<path d="M900 1043 c0 -5 5 -15 10 -23 8 -12 10 -11 10 8 0 12 -4 22 -10 22
-5 0 -10 -3 -10 -7z"/>
<path d="M575 953 c9 -80 44 -272 56 -308 12 -35 59 -253 66 -305 3 -19 12
-41 21 -47 14 -12 14 -13 -4 -13 -16 0 -17 -2 -4 -10 10 -6 11 -10 2 -10 -6 0
-11 -6 -10 -12 2 -7 -8 -14 -22 -16 -24 -3 -50 -26 -50 -44 0 -19 71 -6 122
22 l56 31 3 67 c1 37 2 108 2 157 l-1 90 19 -87 c10 -48 32 -128 48 -178 17
-49 28 -97 24 -106 -5 -13 -3 -15 7 -9 10 6 11 0 6 -29 -6 -33 -5 -36 16 -36
13 0 33 -3 46 -7 21 -5 23 -3 20 23 -2 24 -9 30 -38 35 -32 6 -32 6 -7 8 26 1
28 4 26 33 -1 18 2 41 6 52 11 26 -2 219 -20 294 -8 35 -17 125 -20 200 -3 76
-10 162 -16 192 l-11 55 -106 0 c-59 0 -138 4 -175 8 l-69 8 7 -58z m205 -696
c-14 -6 -31 -20 -38 -29 -7 -10 -20 -18 -28 -18 -17 0 29 42 56 53 28 10 35 6
10 -6z m177 -33 c-3 -3 -12 -4 -19 -1 -8 3 -5 6 6 6 11 1 17 -2 13 -5z m0 -20
c-3 -3 -12 -4 -19 -1 -8 3 -5 6 6 6 11 1 17 -2 13 -5z m6 -21 c-7 -2 -19 -2
-25 0 -7 3 -2 5 12 5 14 0 19 -2 13 -5z"/>
<path d="M1032 962 c-23 -15 -43 -112 -22 -112 6 0 10 7 10 15 0 8 4 15 9 15
9 0 0 -60 -14 -94 -7 -16 -5 -17 11 -8 22 12 57 49 70 74 5 9 7 39 6 67 -4 48
-6 51 -30 51 -15 0 -33 -4 -40 -8z"/>
</g>
</svg>
